<?xml version="1.0" standalone="no"?>
<!DOCTYPE svg PUBLIC "-//W3C//DTD SVG 20010904//EN"
 "http://www.w3.org/TR/2001/REC-SVG-20010904/DTD/svg10.dtd">
<svg version="1.0" xmlns="http://www.w3.org/2000/svg"
 width="16.000000pt" height="16.000000pt" viewBox="0 0 16.000000 16.000000"
 preserveAspectRatio="xMidYMid meet">
<metadata>
Created by potrace 1.11, written by Peter Selinger 2001-2013
</metadata>
<g transform="translate(0.000000,16.000000) scale(0.005229,-0.005229)"
fill="#000000" stroke="none">
<path d="M2792 2913 c-18 -28 -78 -138 -307 -568 -240 -449 -210 -373 -237
-595 -14 -107 -24 -196 -24 -197 1 -1 29 22 62 50 34 29 85 72 115 97 104 86
134 118 160 166 77 143 172 321 219 409 55 104 161 301 237 442 50 94 50 98
-22 161 -73 64 -171 81 -203 35z m144 -54 c17 -10 39 -28 49 -39 18 -20 18
-22 -23 -105 -42 -85 -54 -97 -69 -71 -13 22 -84 66 -107 66 -50 1 -50 14 1
99 48 82 48 82 83 76 19 -4 49 -15 66 -26z m-312 -446 c-48 -93 -104 -199
-124 -238 -21 -38 -50 -94 -64 -123 -21 -42 -30 -51 -40 -43 -8 6 -21 9 -30 5
-9 -3 -16 -4 -16 -1 0 6 105 194 246 444 57 102 73 123 92 123 22 0 18 -11
-64 -167z m150 139 c6 -10 -286 -575 -299 -579 -6 -2 -18 2 -27 9 -15 12 -7
30 78 183 52 94 122 221 155 283 54 100 78 128 93 104z m56 -63 c0 -12 -35
-90 -79 -173 -43 -83 -106 -206 -140 -273 l-62 -123 -25 16 c-13 9 -24 18 -24
19 0 2 37 70 81 152 45 81 94 171 109 198 15 28 46 85 69 128 41 75 71 99 71
56z m-460 -549 c0 -33 11 -38 30 -15 22 27 40 18 40 -20 0 -37 10 -44 30 -20
19 22 30 18 30 -11 0 -18 -14 -40 -47 -71 -93 -86 -116 -101 -140 -92 -27 10
-27 7 -8 128 13 86 32 131 57 131 4 0 8 -13 8 -30z"/>
<path d="M1305 1850 c-202 -37 -326 -108 -370 -213 l-16 -38 -34 27 c-72 55
-152 66 -287 40 -100 -19 -185 -49 -304 -106 l-102 -49 -17 -70 -17 -70 -74
-22 c-41 -12 -77 -25 -79 -29 -4 -6 44 -193 176 -695 28 -104 69 -262 91 -350
22 -88 42 -162 44 -164 3 -3 138 42 584 194 125 43 143 47 245 49 116 2 153
13 230 71 30 23 67 30 615 127 96 17 179 34 184 39 7 6 -40 199 -110 449 -7
25 -49 185 -94 355 -101 386 -109 415 -120 415 -4 0 -44 -7 -87 -15 l-78 -15
-43 45 -43 45 -97 -1 c-53 0 -142 -9 -197 -19z m351 -489 c63 -239 114 -440
114 -446 0 -8 -29 -15 -77 -19 -158 -14 -333 -62 -403 -111 -23 -16 -52 -46
-65 -69 -28 -47 -23 -55 -69 119 -131 494 -176 674 -176 711 0 76 52 138 156
185 84 38 251 69 358 65 l49 -1 113 -434z m24 332 c34 -54 50 -98 85 -232 24
-91 73 -278 109 -416 36 -137 66 -254 66 -258 0 -16 -21 6 -58 61 -32 46 -47
88 -81 222 -24 91 -51 194 -61 230 -68 237 -119 460 -106 460 2 0 23 -30 46
-67z m130 33 c0 -7 252 -965 270 -1026 5 -19 10 -40 10 -47 0 -13 0 -13 -412
-87 -299 -54 -308 -56 -353 -90 -60 -46 -113 -60 -201 -52 -64 6 -80 3 -175
-30 -319 -111 -564 -194 -575 -194 -6 0 -14 12 -18 28 -3 15 -17 68 -30 117
-34 127 -151 570 -201 765 l-43 165 29 14 c34 17 42 12 31 -20 -7 -18 3 -72
39 -209 27 -102 74 -279 104 -395 86 -331 104 -398 110 -403 6 -6 126 30 438
133 219 72 232 75 296 69 56 -6 75 -3 117 15 27 12 58 31 69 41 19 18 209 59
645 141 30 6 60 12 66 14 11 3 -28 167 -144 600 -22 83 -54 204 -71 270 -24
93 -37 125 -56 140 -30 25 -31 32 -7 38 23 6 62 8 62 3z m-1027 -122 c54 -9
109 -65 135 -135 26 -72 213 -791 207 -797 -3 -3 -24 3 -47 14 -31 14 -64 19
-123 18 -96 -1 -173 -20 -323 -80 -62 -26 -115 -44 -118 -41 -3 3 -43 148 -89
324 -46 175 -97 370 -114 434 -17 64 -31 121 -31 126 0 14 106 65 213 102 88
31 195 52 232 46 11 -2 37 -7 58 -11z m-544 -241 c12 -47 155 -596 187 -717
24 -89 30 -186 14 -236 -10 -34 -8 -41 -99 300 -131 493 -142 542 -135 618 3
39 10 72 15 72 4 0 13 -17 18 -37z m1636 -583 c33 -33 57 -60 55 -60 -3 0
-144 -25 -314 -54 -308 -54 -309 -54 -333 -85 -35 -44 -53 -41 -53 10 0 111
119 184 365 223 55 9 118 17 140 19 22 2 49 4 60 5 13 1 42 -20 80 -58z m-828
-145 c52 -15 113 -70 113 -100 0 -18 -1 -18 -48 0 l-39 16 -290 -101 c-160
-55 -294 -100 -297 -100 -10 0 -7 28 11 92 l17 61 71 32 c97 45 217 84 300
100 93 18 103 18 162 0z"/>
</g>
</svg>
